<?xml version="1.0" standalone="no"?>
<!DOCTYPE svg PUBLIC "-//W3C//DTD SVG 20010904//EN"
 "http://www.w3.org/TR/2001/REC-SVG-20010904/DTD/svg10.dtd">
<svg version="1.0" xmlns="http://www.w3.org/2000/svg"
 width="728.000000pt" height="728.000000pt" viewBox="0 0 728.000000 728.000000"
 preserveAspectRatio="xMidYMid meet">
<metadata>
Created by potrace 1.14, written by Peter Selinger 2001-2017
</metadata>
<g transform="translate(0.000000,728.000000) scale(0.100000,-0.100000)"
fill="#000000" stroke="none">
<path d="M2405 7127 c-11 -7 -22 -14 -25 -17 -3 -3 -25 -16 -50 -29 -25 -14
-48 -29 -51 -34 -3 -5 -10 -9 -15 -9 -8 0 -72 -36 -234 -132 -25 -14 -57 -32
-72 -38 -16 -7 -28 -16 -28 -20 0 -4 -4 -8 -9 -8 -11 0 -204 -112 -212 -123
-3 -5 -10 -9 -15 -9 -9 0 -62 -28 -94 -48 -55 -35 -223 -130 -231 -130 -5 0
-9 -3 -9 -7 0 -5 -20 -17 -45 -28 -25 -11 -45 -22 -45 -26 0 -3 -17 -14 -38
-23 -21 -10 -51 -28 -67 -40 l-29 -23 0 -673 -1 -673 -65 -38 c-36 -21 -76
-43 -90 -49 -13 -6 -27 -14 -30 -18 -3 -4 -21 -15 -40 -26 -58 -31 -426 -243
-469 -271 -22 -14 -43 -25 -45 -25 -3 0 -45 -24 -93 -53 -49 -28 -102 -59
-118 -67 -17 -8 -35 -19 -42 -25 -6 -5 -38 -25 -70 -43 l-58 -32 1 -738 c0
-405 4 -747 8 -759 4 -13 11 -23 16 -23 4 0 61 -31 126 -68 66 -38 130 -75
144 -83 14 -8 27 -16 30 -19 6 -6 86 -50 117 -65 13 -5 23 -13 23 -17 0 -5 5
-8 11 -8 12 0 145 -76 170 -97 9 -7 19 -10 22 -6 4 3 7 1 7 -5 0 -7 4 -12 9
-12 7 0 173 -93 196 -110 6 -4 37 -22 70 -40 71 -39 88 -49 136 -78 l35 -22 0
-671 c-1 -369 1 -674 4 -678 7 -11 249 -151 261 -151 5 0 9 -4 9 -8 0 -4 12
-13 28 -19 31 -14 104 -56 144 -84 14 -11 29 -19 33 -19 3 0 44 -23 91 -50 47
-28 89 -50 93 -50 5 0 11 -3 13 -8 2 -6 193 -118 288 -169 14 -8 39 -23 55
-33 17 -10 46 -27 65 -38 53 -29 99 -56 158 -91 29 -17 57 -31 61 -31 10 0
211 115 231 132 8 7 15 11 15 8 0 -2 45 23 100 55 55 33 114 66 130 75 77 42
131 74 146 86 8 8 19 14 23 14 7 0 168 92 176 100 3 4 23 15 45 26 22 11 52
27 68 37 54 34 72 44 82 47 6 1 22 11 36 21 49 35 163 89 168 81 8 -12 130
-82 142 -82 5 0 9 -4 9 -9 0 -5 8 -11 18 -14 21 -7 117 -62 154 -88 14 -10 29
-19 33 -19 3 0 44 -23 91 -50 47 -28 89 -50 93 -50 5 0 11 -4 13 -8 4 -9 141
-87 147 -83 2 1 7 -2 10 -7 6 -9 63 -44 131 -80 19 -10 70 -40 113 -65 43 -26
80 -47 82 -47 2 0 33 -18 69 -40 36 -22 70 -40 75 -40 4 0 59 29 120 65 62 36
114 65 115 65 2 0 46 25 97 56 52 31 112 67 134 79 132 72 160 89 163 97 2 4
8 8 12 8 5 0 138 75 297 167 158 91 305 175 325 186 20 11 38 27 40 36 2 9 3
312 2 673 0 362 2 661 5 666 8 11 161 102 172 102 5 0 9 4 9 8 0 4 12 13 28
19 15 7 47 24 72 39 123 72 162 94 170 94 4 0 10 3 12 8 2 4 28 20 58 36 30
16 61 33 68 39 22 17 165 97 174 97 4 0 8 3 8 8 0 4 19 16 43 27 23 11 44 22
47 26 3 3 30 19 60 36 30 17 71 40 90 51 19 12 49 28 67 37 17 9 33 24 35 33
3 14 2 1474 -1 1493 -1 3 -18 14 -38 25 -21 10 -40 21 -43 24 -5 5 -41 26
-100 57 -19 10 -37 20 -40 23 -3 3 -16 11 -29 18 -13 8 -39 22 -57 33 -19 10
-51 29 -71 40 -21 12 -50 30 -65 40 -14 11 -29 19 -32 19 -3 0 -43 23 -90 50
-47 28 -89 50 -95 50 -6 0 -11 5 -11 10 0 6 -7 10 -15 10 -8 0 -15 5 -15 10 0
6 -5 10 -10 10 -9 0 -111 56 -195 107 -11 7 -33 19 -50 28 -16 9 -43 24 -60
35 -16 10 -44 26 -62 36 -18 9 -34 23 -37 32 -2 10 -3 313 -3 675 1 363 0 662
-3 666 -3 4 -21 16 -40 27 -19 10 -37 21 -40 24 -6 6 -209 123 -225 129 -5 2
-29 17 -52 33 -24 16 -43 26 -43 22 0 -4 -8 0 -17 8 -10 8 -121 74 -248 147
-126 73 -237 136 -245 141 -48 28 -202 117 -239 138 -25 14 -67 38 -93 53 -27
16 -54 29 -61 28 -7 0 -32 -13 -57 -29 -25 -16 -73 -43 -107 -61 -35 -17 -63
-36 -63 -40 0 -5 -5 -9 -12 -9 -6 0 -49 -22 -95 -50 -46 -27 -88 -50 -93 -50
-6 0 -10 -4 -10 -8 0 -4 -16 -14 -35 -21 -19 -7 -35 -16 -35 -21 0 -5 -9 -12
-20 -15 -12 -4 -66 -33 -121 -66 -54 -32 -102 -59 -105 -59 -2 0 -17 -8 -32
-19 -15 -10 -113 -68 -219 -129 l-191 -109 -64 35 c-35 20 -64 39 -66 44 -2 4
-10 8 -18 8 -8 0 -27 9 -42 19 -21 15 -504 295 -597 346 -11 6 -38 22 -60 36
-22 13 -51 30 -65 37 -14 6 -32 16 -40 22 -48 33 -243 140 -253 139 -7 0 -21
-6 -32 -12z"/>
</g>
</svg>
